<?xml version="1.0" encoding="utf-8"?>
<!-- Generator: Adobe Illustrator 18.0.0, SVG Export Plug-In . SVG Version: 6.00 Build 0)  -->
<!DOCTYPE svg PUBLIC "-//W3C//DTD SVG 1.1//EN" "http://www.w3.org/Graphics/SVG/1.1/DTD/svg11.dtd">
<svg version="1.1" id="Слой_1" xmlns="http://www.w3.org/2000/svg" xmlns:xlink="http://www.w3.org/1999/xlink" x="0px" y="0px"
	 viewBox="0 0 128 128" enable-background="new 0 0 128 128" xml:space="preserve">
<g>
	<g>
		<g>
			<path fill="#EC7BB0" d="M114.5,87.5l-39.6,19.8c-6.9,3.4-15,3.4-21.8,0L13.5,87.5c-6-3-6-11.5,0-14.5l39.6-19.8
				c6.9-3.4,15-3.4,21.8,0L114.5,73C120.5,76,120.5,84.5,114.5,87.5z"/>
		</g>
		<g>
			<path fill="#6A576D" d="M64,110.9c-3.9,0-7.8-0.9-11.4-2.7L13,88.4c-3.1-1.6-5-4.7-5-8.2s1.9-6.6,5-8.2l39.6-19.8
				c7-3.5,15.7-3.5,22.7,0L115,72.1c3.1,1.6,5,4.7,5,8.2s-1.9,6.6-5,8.2l-39.6,19.8C71.8,110,67.9,110.9,64,110.9z M64,51.6
				c-3.6,0-7.2,0.9-10.5,2.5L13.9,73.9c-2.5,1.2-3.9,3.6-3.9,6.4s1.5,5.1,3.9,6.4l39.6,19.8c6.5,3.2,14.5,3.2,20.9,0l39.6-19.8
				c2.5-1.2,3.9-3.6,3.9-6.4s-1.5-5.1-3.9-6.4L74.5,54.1C71.2,52.5,67.6,51.6,64,51.6z"/>
		</g>
		<g opacity="0.1">
			<path fill="#110F12" d="M114.5,73L74.9,53.2c-6.9-3.4-15-3.4-21.8,0L13.5,73c-1.5,0.8-2.7,1.9-3.4,3.2c0.7,1.3,1.9,2.4,3.4,3.2
				l39.6,19.8c6.9,3.4,15,3.4,21.8,0l39.6-19.8c1.5-0.8,2.7-1.9,3.4-3.2C117.2,74.9,116,73.8,114.5,73z"/>
		</g>
		<g opacity="0.5">
			<path fill="#F1ED7B" d="M114.5,71.3L74.9,91.1c-6.9,3.4-15,3.4-21.8,0L13.5,71.3c-6-3-6-11.5,0-14.5l39.6-19.8
				c6.9-3.4,15-3.4,21.8,0l39.6,19.8C120.5,59.7,120.5,68.3,114.5,71.3z"/>
		</g>
		<g>
			<path fill="#6A576D" d="M64,94.6c-3.9,0-7.8-0.9-11.4-2.7L13,72.2c-3.1-1.6-5-4.7-5-8.2s1.9-6.6,5-8.2L52.6,36
				c7-3.5,15.7-3.5,22.7,0L115,55.8c3.1,1.6,5,4.7,5,8.2s-1.9,6.6-5,8.2L75.4,92C71.8,93.7,67.9,94.6,64,94.6z M64,35.4
				c-3.6,0-7.2,0.9-10.5,2.5L13.9,57.6C11.5,58.9,10,61.2,10,64s1.5,5.1,3.9,6.4l39.6,19.8c6.5,3.2,14.5,3.2,20.9,0l39.6-19.8
				c2.5-1.2,3.9-3.6,3.9-6.4s-1.5-5.1-3.9-6.4L74.5,37.8C71.2,36.2,67.6,35.4,64,35.4z"/>
		</g>
		<g opacity="0.1">
			<path fill="#110F12" d="M114.5,56.7L74.9,36.9c-6.9-3.4-15-3.4-21.8,0L13.5,56.7c-1.5,0.8-2.7,1.9-3.4,3.2
				c0.7,1.3,1.9,2.4,3.4,3.2l39.6,19.8c6.9,3.4,15,3.4,21.8,0l39.6-19.8c1.5-0.8,2.7-1.9,3.4-3.2C117.2,58.6,116,57.5,114.5,56.7z"
				/>
		</g>
		<g opacity="0.5">
			<path fill="#72B6D3" d="M114.5,55L74.9,74.8c-6.9,3.4-15,3.4-21.8,0L13.5,55c-6-3-6-11.5,0-14.5l39.6-19.8c6.9-3.4,15-3.4,21.8,0
				l39.6,19.8C120.5,43.5,120.5,52,114.5,55z"/>
		</g>
		<g>
			<path fill="#6A576D" d="M64,78.4c-3.9,0-7.8-0.9-11.4-2.7L13,55.9c-3.1-1.6-5-4.7-5-8.2s1.9-6.6,5-8.2l39.6-19.8
				c7-3.5,15.7-3.5,22.7,0L115,39.6c3.1,1.6,5,4.7,5,8.2s-1.9,6.6-5,8.2L75.4,75.7C71.8,77.5,67.9,78.4,64,78.4z M64,19.1
				c-3.6,0-7.2,0.9-10.5,2.5L13.9,41.4C11.5,42.6,10,45,10,47.7s1.5,5.1,3.9,6.4l39.6,19.8c6.5,3.2,14.5,3.2,20.9,0l39.6-19.8
				c2.5-1.2,3.9-3.6,3.9-6.4s-1.5-5.1-3.9-6.4L74.5,21.6C71.2,19.9,67.6,19.1,64,19.1z"/>
		</g>
	</g>
</g>
</svg>
